<svg width="1000" height="1000" viewBox="0 0 1000 1000" fill="none" xmlns="http://www.w3.org/2000/svg">
<path d="M481.56 12.39C471.6 18.54 466.72 25.32 458.46 46.09L452.74 60.5L436.63 43.54C423.7 29.76 418.62 25.95 411.2 24.04C394.24 19.59 377.08 26.16 367.33 41C363.3 46.93 361.61 53.5 360.12 67.7C359.06 78.08 358 87.62 358 89.11C358 90.59 350.16 86.99 340.62 81.27C331.29 75.55 319.85 70.25 315.61 69.61C297.17 66.43 276.19 79.57 271.32 97.16C268.35 108.18 268.35 111.15 271.96 125.56C278.32 151.63 278.32 149.72 271.75 148.45C268.57 147.6 259.03 145.69 250.77 144C237.21 141.03 234.45 141.03 224.91 143.79C206.9 149.3 195.24 167.1 197.36 186.18C198.21 191.9 202.23 201.23 208.38 211.82C219.82 230.26 219.4 231.53 202.23 231.74C164.51 232.16 143.95 254.21 152.42 285.15C154.75 293.42 159.84 299.56 177.43 314.61L188.88 324.36L172.14 331.35C163.03 335.16 153.07 340.04 149.68 342.37C138.66 350.21 132.51 367.8 135.9 382.85C139.08 397.9 147.34 405.74 169.39 415.06L188.89 423.11L172.99 437.52C151.16 457.44 146.07 471.64 153.49 489.87C160.9 507.26 171.07 513.41 197.35 515.74C207.95 516.8 216.85 518.07 217.48 518.71C218.12 519.35 214.09 527.19 208.58 536.09C201.8 546.69 198.2 555.38 197.35 561.52C195.23 580.81 208.37 599.88 227.02 604.97C234.65 606.88 239.31 606.67 256.05 602.85C267.07 600.31 276.4 598.61 276.82 599.03C277.03 599.45 275.34 608.99 272.79 620.01C268.76 637.6 268.55 641.63 270.88 649.05C276.39 667.7 295.68 680.84 313.69 678.3C318.35 677.66 330.01 672.79 339.33 667.28C348.66 661.98 356.71 657.74 357.13 658.38C357.55 658.8 358.83 667.71 359.88 678.3C362.64 705 368.57 714.96 385.95 722.38C404.18 729.8 417.32 724.92 437.45 703.31L452.29 687.42L460.77 706.71C471.79 732.14 479.42 738.71 498.92 739.98C510.79 740.83 513.75 740.19 522.02 735.32C530.08 730.66 533.04 727.05 538.98 714.34C543.01 705.86 547.46 696.33 548.73 692.93L551.06 686.57L561.02 698.23C581.79 722.18 591.33 727.48 609.13 724.72C630.53 721.33 641.56 706.28 643.46 677.67C644.09 667.71 645.58 659.23 646.43 658.6C647.28 658.18 655.12 661.99 664.02 667.29C683.73 679.37 696.02 681.49 710.22 675.13C730.78 666.23 736.92 647.58 729.93 616.42C728.02 607.52 726.75 599.89 727.18 599.25C727.82 598.83 737.14 600.52 748.16 602.85C765.12 606.66 769.35 607.09 777.2 604.97C790.13 601.37 801.79 589.08 804.97 575.51C808.36 561.94 806.24 554.53 793.74 533.97L784.2 518.07L796.28 517.01C829.77 513.62 841.42 508.32 848.84 493.06C853.08 483.95 853.72 466.36 849.9 458.3C848.42 455.55 839.94 446.43 831.25 438.17L815.14 423.12L831.88 416.13C841 412.32 851.17 407.44 854.35 405.32C866.01 396.84 872.15 374.38 866.43 359.54C862.61 349.37 852.02 340.47 835.06 333.26C826.16 329.45 818.1 325.84 817.26 324.99C816.41 324.14 822.35 317.57 830.61 310.37C848.2 294.69 852.44 287.69 852.65 273.07C852.86 250.6 836.97 234.92 811.32 232.59C803.9 231.95 794.79 231.11 790.97 230.47L784.19 229.41L795.21 211.18C804.54 195.5 806.02 191.47 806.02 182.14C806.02 162.64 794.57 147.81 775.29 142.72C769.14 141.03 763.21 141.45 747.74 144.84C737.14 147.17 727.82 148.87 727.39 148.23C726.76 147.59 728.03 140.18 729.93 131.7C734.8 110.51 734.38 99.7 728.02 88.89C721.03 77.02 708.31 70.03 693.69 70.03C683.94 70.03 679.7 71.51 665.29 79.99C655.75 85.5 647.49 89.32 646.43 88.89C645.58 88.25 644.1 79.56 643.46 69.39C641.55 41.84 630.95 27.85 608.7 22.98C594.92 20.23 584.96 25.1 567.37 43.54C551.47 60.07 550.84 60.5 548.93 55.62C542.57 38.88 534.94 24.25 530.07 18.96C517.8 6.03002 497.03 3.06 481.56 12.39ZM545.78 120.48C637.55 136.59 711.94 200.17 743.52 289.82C760.48 337.93 761.32 398.54 745.64 449.41C726.35 511.71 678.45 568.51 619.74 598.82C535.81 642.06 438.32 636.76 360.12 584.83C304.38 547.53 266.02 490.73 250.76 422.06C245.67 400.02 245.67 344.7 250.76 322.24C262.2 269.89 285.09 227.93 321.97 191.47C359.06 154.59 401.02 132.13 452.31 121.53C476.69 116.45 520.13 116.03 545.78 120.48Z" fill="white"/>
<path d="M596.01 257.6C593.47 259.08 559.77 291.3 520.77 328.81L450.2 397.48L430.07 376.29C413.33 358.7 408.24 354.67 400.4 352.55C383.45 347.89 363.95 358.48 355.68 376.92C346.98 396 350.8 403.2 395.73 451.1C426.25 483.74 433.88 490.52 440.87 492.43C459.1 497.3 458.25 497.94 556.16 401.72C605.75 353.19 647.29 310.8 648.56 307.62C649.83 304.23 650.47 296.81 650.04 290.88C648.98 281.13 647.71 278.8 637.11 268.2C625.88 256.97 624.82 256.33 612.95 255.7C605.54 255.27 598.76 256.12 596.01 257.6Z" fill="white"/>
<path d="M117.88 529.3C105.8 532.69 97.95 537.99 91.6 547.53C87.79 553.04 86.73 557.49 86.73 568.94C86.73 589.5 99.02 718.57 101.99 728.31C103.47 733.4 107.92 739.54 114.07 744.84L123.61 753.32L66.81 810.12L10.01 866.92L23.36 868.4C30.78 869.03 57.48 871.15 82.49 873.06C107.5 874.97 128.27 876.66 128.48 876.88C128.69 877.09 137.59 988.57 137.59 993.02C137.59 994.5 191.42 941.94 257.33 876.03C323.24 810.12 377.07 755.86 377.07 755.23C377.07 754.6 373.89 752.69 369.86 751.42C359.26 747.61 342.52 731.71 336.59 719.84C333.84 714.33 331.5 709.46 331.29 709.24C331.29 709.03 326.42 709.45 320.27 710.51C292.51 714.75 262.2 701.4 248 678.08L243.76 671.51L186.32 675.54C154.74 677.66 128.46 678.93 127.82 678.29C125.91 676.38 119.77 607.08 121.25 605.6C121.89 604.96 133.12 603.48 146.26 602.42C159.4 601.36 170.42 600.3 170.63 599.88C171.05 599.67 169.78 595.01 167.87 589.92C164.27 579.75 163.21 558.76 165.75 549.44C167.02 544.56 166.39 543.51 162.15 542.45C159.18 541.81 152.61 537.79 147.31 533.76C136.74 525.7 133.35 525.28 117.88 529.3ZM236.14 810.33C194.18 852.29 159.21 886.63 158.57 886.63C157.72 886.63 156.66 879 156.45 869.89C156.03 860.57 154.97 852.51 154.12 851.66C153.48 850.81 145.01 849.75 135.47 849.12C126.15 848.49 118.09 847.21 117.46 846.37C117.04 845.74 138.65 822.85 165.78 795.93L214.95 746.76L256.28 740.62C278.96 737.23 301 734.47 305.03 734.26C312.01 734.03 309.26 737.21 236.14 810.33Z" fill="white"/>
<path d="M859.45 531.42C856.06 534.39 849.7 538.2 845.67 540.11L838.04 543.5V565.12C838.04 581.86 837.19 588.22 834.23 593.52C832.11 597.33 831.26 600.51 832.11 600.51C848.85 601.57 877.89 604.54 878.74 605.6C880.22 607.08 874.29 676.39 872.38 678.08C871.74 678.93 846.1 677.66 815.58 675.54L760.05 671.73L756.66 677.03C749.88 688.05 732.71 702.04 720.84 706.49C708.76 711.15 685.87 712.85 676.76 709.88C673.16 708.82 671.67 710.09 668.28 717.3C662.77 729.59 647.3 744.85 634.16 751.21L623.14 756.51L742.67 876.04C808.58 941.95 862.42 994.3 862.42 992.61C862.42 990.92 864.33 966.54 866.66 938.57C868.99 910.59 870.9 885.16 870.9 882.19V876.68L918.16 873.08C944.02 871.17 970.72 869.05 977.72 868.2L990.01 866.93L933.21 809.92C878.95 755.88 876.41 752.7 880.44 749.94C889.77 743.16 895.7 735.74 898.03 728.11C901 718.36 913.29 590.78 913.29 570.22C913.29 561.95 912.02 553.48 910.32 550.09C904.17 538.22 891.46 530.38 874.08 527.63C867.08 526.55 864.53 527.18 859.45 531.42ZM740.76 740.39L785.06 746.75L834.23 795.92C861.36 822.84 882.98 845.73 882.55 846.36C881.92 847.21 873.86 848.48 864.54 849.11C855 849.75 846.74 850.81 846.1 851.44C845.25 852.08 844.4 860.34 843.77 869.67C843.35 879 842.29 886.63 841.44 886.63C840.8 886.63 805.83 852.3 763.87 810.33C708.55 755.02 688.84 734.03 692.02 734.03C694.56 734.03 716.6 737 740.76 740.39Z" fill="white"/>
</svg>
