<?xml version="1.0" encoding="utf-8"?>
<!-- Svg Vector Icons : http://www.onlinewebfonts.com/icon -->
<!DOCTYPE svg PUBLIC "-//W3C//DTD SVG 1.1//EN" "http://www.w3.org/Graphics/SVG/1.1/DTD/svg11.dtd">
<svg version="1.1" xmlns="http://www.w3.org/2000/svg" xmlns:xlink="http://www.w3.org/1999/xlink" x="0px" y="0px" viewBox="0 0 1000 1000" enable-background="new 0 0 1000 1000" xml:space="preserve">
<metadata> Svg Vector Icons : http://www.onlinewebfonts.com/icon </metadata>
<g><path d="M839.7,557.8v187.4c0,46.8-16.6,86.7-49.8,119.9c-33.2,33.2-73.2,49.8-119.9,49.8H179.7c-46.8,0-86.7-16.6-119.9-49.8C26.6,831.9,10,791.9,10,745.2V254.8c0-46.8,16.6-86.7,49.8-119.9C93,101.7,133,85.1,179.7,85.1H670c24.7,0,47.7,4.9,68.9,14.7c5.9,2.8,9.4,7.3,10.6,13.6c1.2,6.7-0.6,12.4-5.3,17.1l-28.9,28.9c-3.9,3.9-8.4,5.9-13.6,5.9c-1.2,0-2.9-0.4-5.3-1.2c-9.1-2.4-17.9-3.5-26.6-3.5H179.7c-25.9,0-48.1,9.2-66.6,27.7c-18.5,18.5-27.7,40.7-27.7,66.6v490.3c0,25.9,9.2,48.2,27.7,66.6s40.7,27.7,66.6,27.7H670c25.9,0,48.1-9.2,66.6-27.7c18.5-18.5,27.7-40.7,27.7-66.6V595.5c0-5.1,1.8-9.5,5.3-13l37.7-37.7c3.9-3.9,8.4-5.9,13.6-5.9c2.4,0,4.7,0.6,7.1,1.7C835.8,543.8,839.7,549.5,839.7,557.8z M975.9,269.6L496.2,749.2c-9.4,9.4-20.6,14.1-33.6,14.1c-13,0-24.2-4.7-33.6-14.1L175.7,495.9c-9.4-9.4-14.1-20.6-14.1-33.6c0-13,4.7-24.2,14.1-33.6l64.8-64.8c9.4-9.4,20.6-14.1,33.6-14.1c13,0,24.2,4.7,33.6,14.1l155,155L844,137.6c9.4-9.4,20.6-14.1,33.6-14.1s24.2,4.7,33.6,14.1l64.8,64.8c9.4,9.4,14.1,20.6,14.1,33.6C990,249,985.3,260.2,975.9,269.6z"/></g>
</svg>